<svg xmlns="http://www.w3.org/2000/svg" width="300" height="180" viewBox="0 0 300 180">
  <path fill="#00CC44" fill-rule="nonzero" d="M270 166C270.552285 166 271 165.552285 271 165 271 164.447715 270.552285 164 270 164 269.447715 164 269 164.447715 269 165 269 165.552285 269.447715 166 270 166zM270 167C268.895431 167 268 166.104569 268 165 268 163.895431 268.895431 163 270 163 271.104569 163 272 163.895431 272 165 272 166.104569 271.104569 167 270 167zM164 17C164.552285 17 165 16.5522847 165 16 165 15.4477153 164.552285 15 164 15 163.447715 15 163 15.4477153 163 16 163 16.5522847 163.447715 17 164 17zM164 18C162.895431 18 162 17.1045695 162 16 162 14.8954305 162.895431 14 164 14 165.104569 14 166 14.8954305 166 16 166 17.1045695 165.104569 18 164 18zM285 72C285.552285 72 286 71.5522847 286 71 286 70.4477153 285.552285 70 285 70 284.447715 70 284 70.4477153 284 71 284 71.5522847 284.447715 72 285 72zM285 73C283.895431 73 283 72.1045695 283 71 283 69.8954305 283.895431 69 285 69 286.104569 69 287 69.8954305 287 71 287 72.1045695 286.104569 73 285 73z"/>
  <polygon fill="#00CC44" points="281 155 281 153 282 153 282 155 284 155 284 156 282 156 282 158 281 158 281 156 279 156 279 155"/>
  <polygon fill="#00CC44" points="175 27 175 25 176 25 176 27 178 27 178 28 176 28 176 30 175 30 175 28 173 28 173 27"/>
  <path fill="#00CC44" fill-rule="nonzero" d="M20,35 C20.5522847,35 21,34.5522847 21,34 C21,33.4477153 20.5522847,33 20,33 C19.4477153,33 19,33.4477153 19,34 C19,34.5522847 19.4477153,35 20,35 Z M20,36 C18.8954305,36 18,35.1045695 18,34 C18,32.8954305 18.8954305,32 20,32 C21.1045695,32 22,32.8954305 22,34 C22,35.1045695 21.1045695,36 20,36 Z"/>
  <path fill="#00CC44" fill-rule="nonzero" d="M34.8062676,19.1937324 C35.0645775,19.4520422 35.0645775,19.8708451 34.8062676,20.1291549 L33.4031338,21.5322887 C33.144824,21.7905985 32.7260211,21.7905985 32.4677113,21.5322887 C32.2094015,21.2739789 32.2094015,20.855176 32.4677113,20.5968662 L33.8708451,19.1937324 C34.1291549,18.9354225 34.5479578,18.9354225 34.8062676,19.1937324 L34.8062676,19.1937324 Z M31.5322887,22.4677113 C31.7905985,22.7260211 31.7905985,23.144824 31.5322887,23.4031338 L30.1291549,24.8062676 C29.8708451,25.0645775 29.4520422,25.0645775 29.1937324,24.8062676 C28.9354225,24.5479578 28.9354225,24.1291549 29.1937324,23.8708451 L30.5968662,22.4677113 C30.855176,22.2094015 31.2739789,22.2094015 31.5322887,22.4677113 Z M34.8062676,24.8062676 C34.5479578,25.0645775 34.1291549,25.0645775 33.8708451,24.8062676 L32.4677113,23.4031338 C32.2094015,23.144824 32.2094015,22.7260211 32.4677113,22.4677113 C32.7260211,22.2094015 33.144824,22.2094015 33.4031338,22.4677113 L34.8062676,23.8708451 C35.0645775,24.1291549 35.0645775,24.5479578 34.8062676,24.8062676 Z M31.5322887,21.5322887 C31.2739789,21.7905985 30.855176,21.7905985 30.5968662,21.5322887 L29.1937324,20.1291549 C28.9354225,19.8708451 28.9354225,19.4520422 29.1937324,19.1937324 C29.4520422,18.9354225 29.8708451,18.9354225 30.1291549,19.1937324 L31.5322887,20.5968662 C31.7905985,20.855176 31.7905985,21.2739789 31.5322887,21.5322887 Z"/>
  <polygon fill="#9E9E9E" fill-rule="nonzero" points="160.507 89.167 151.75 81.2 153.046 80 164 90 153.046 100 151.75 98.8 160.507 90.833 136 90.833 136 89.167"/>
  <path fill="#F5F5F5" stroke="#BDBDBD" d="M116.500083,60.2071068 L92.7929761,36.5 L32,36.5 C31.1715729,36.5 30.5,37.1715729 30.5,38 L30.5,145.000073 C30.5,145.828501 31.1715729,146.500073 32,146.500073 L115.000083,146.500073 C115.82851,146.500073 116.500083,145.828501 116.500083,145.000073 L116.500083,60.2071068 Z"/>
  <path fill="#BDBDBD" d="M93.0000829,36 L117.000083,60 L94.0000829,60 C93.4477981,60 93.0000829,59.5522847 93.0000829,59 L93.0000829,36 Z"/>
  <rect width="51" height="2" x="48" y="87" fill="#9E9E9E"/>
  <rect width="51" height="4" x="48" y="75" fill="#00CC44"/>
  <rect width="51" height="2" x="48" y="97" fill="#9E9E9E"/>
  <rect width="21" height="2" x="78" y="107" fill="#9E9E9E"/>
  <rect width="21" height="2" x="78" y="117" fill="#9E9E9E"/>
  <rect width="21" height="2" x="78" y="127" fill="#9E9E9E"/>
  <rect width="48" height="24" x="22" y="106" fill="#00CC44" rx="1"/>
  <path fill="#FFFFFF" fill-rule="nonzero" d="M30,124 L30,111 L34.1148564,111 C37.011236,111 39.1685393,111.993884 39.1685393,115.015291 C39.1685393,117.897554 37.011236,119.229358 34.1947566,119.229358 L32.3171036,119.229358 L32.3171036,124 L30,124 Z M32.3171036,117.380734 L34.0149813,117.380734 C35.9525593,117.380734 36.8913858,116.605505 36.8913858,115.015291 C36.8913858,113.385321 35.8726592,112.848624 33.9350811,112.848624 L32.3171036,112.848624 L32.3171036,117.380734 Z M41.6254682,124 L41.6254682,111 L45.1210986,111 C49.1161049,111 51.4731586,113.146789 51.4731586,117.440367 C51.4731586,121.753823 49.1161049,124 45.2409488,124 L41.6254682,124 Z M43.9425718,122.131498 L44.9612984,122.131498 C47.5980025,122.131498 49.0961298,120.640673 49.0961298,117.440367 C49.0961298,114.259939 47.5980025,112.868502 44.9612984,112.868502 L43.9425718,112.868502 L43.9425718,122.131498 Z M54.1098627,124 L54.1098627,111 L62,111 L62,112.948012 L56.4269663,112.948012 L56.4269663,116.625382 L61.1810237,116.625382 L61.1810237,118.573394 L56.4269663,118.573394 L56.4269663,124 L54.1098627,124 Z"/>
  <path fill="#00CC44" d="M185,36 L246.000083,36 L270.000083,60 L270.000083,145.000073 C270.000083,146.104643 269.104652,147.000073 268.000083,147.000073 L185,147.000073 C183.895431,147.000073 183,146.104643 183,145.000073 L183,38 C183,36.8954305 183.895431,36 185,36 Z"/>
  <path fill="#FFFFFF" fill-rule="nonzero" d="M216,108 L206,108 L206,118 L216,118 L216,108 Z M218,108 L218,118 L247,118 L247,108 L218,108 Z M216,128 L216,120 L206,120 L206,128 L216,128 Z M218,128 L247,128 L247,120 L218,120 L218,128 Z M216,96 L206,96 L206,106 L216,106 L216,96 Z M218,96 L218,106 L247,106 L247,96 L218,96 Z M216,86 L206,86 L206,94 L216,94 L216,86 Z M218,86 L218,94 L247,94 L247,86 L218,86 Z M204,84 L249,84 L249,130 L204,130 L204,84 Z"/>
  <path fill="#009933" d="M241.5,66 L274.5,66 C275.328427,66 276,66.6715729 276,67.5 L276,100.5 C276,101.328427 275.328427,102 274.5,102 L241.5,102 C240.671573,102 240,101.328427 240,100.5 L240,67.5 C240,66.6715729 240.671573,66 241.5,66 Z"/>
  <path fill="#FFFFFF" fill-rule="nonzero" d="M249,93 L254.977982,83.7515337 L249.363303,75 L254.779817,75 L256.662385,78.3957055 C257.157798,79.2239264 257.620183,80.1625767 258.214679,81.2944785 L258.346789,81.2944785 C258.842202,80.1625767 259.304587,79.2239264 259.733945,78.3957055 L261.451376,75 L266.636697,75 L261.055046,83.9447853 L267,93 L261.583486,93 L259.436697,89.3282209 C258.908257,88.3895706 258.412844,87.4785276 257.818349,86.3742331 L257.686239,86.3742331 C257.190826,87.4785276 256.695413,88.3895706 256.233028,89.3282209 L254.218349,93 L249,93 Z"/>
  <path fill="#FFFFFF" d="M246.000083,36 L270.000083,60 L247.000083,60 C246.447798,60 246.000083,59.5522847 246.000083,59 L246.000083,36 Z" opacity=".3"/>
  <path fill="#00CC44" fill-rule="nonzero" d="M17.8062676,147.193732 C18.0645775,147.452042 18.0645775,147.870845 17.8062676,148.129155 L16.4031338,149.532289 C16.144824,149.790599 15.7260211,149.790599 15.4677113,149.532289 C15.2094015,149.273979 15.2094015,148.855176 15.4677113,148.596866 L16.8708451,147.193732 C17.1291549,146.935423 17.5479578,146.935423 17.8062676,147.193732 L17.8062676,147.193732 Z M14.5322887,150.467711 C14.7905985,150.726021 14.7905985,151.144824 14.5322887,151.403134 L13.1291549,152.806268 C12.8708451,153.064577 12.4520422,153.064577 12.1937324,152.806268 C11.9354225,152.547958 11.9354225,152.129155 12.1937324,151.870845 L13.5968662,150.467711 C13.855176,150.209401 14.2739789,150.209401 14.5322887,150.467711 Z M17.8062676,152.806268 C17.5479578,153.064577 17.1291549,153.064577 16.8708451,152.806268 L15.4677113,151.403134 C15.2094015,151.144824 15.2094015,150.726021 15.4677113,150.467711 C15.7260211,150.209401 16.144824,150.209401 16.4031338,150.467711 L17.8062676,151.870845 C18.0645775,152.129155 18.0645775,152.547958 17.8062676,152.806268 Z M14.5322887,149.532289 C14.2739789,149.790599 13.855176,149.790599 13.5968662,149.532289 L12.1937324,148.129155 C11.9354225,147.870845 11.9354225,147.452042 12.1937324,147.193732 C12.4520422,146.935423 12.8708451,146.935423 13.1291549,147.193732 L14.5322887,148.596866 C14.7905985,148.855176 14.7905985,149.273979 14.5322887,149.532289 Z"/>
  <path fill="#00CC44" fill-rule="nonzero" d="M23,163 C23.5522847,163 24,162.552285 24,162 C24,161.447715 23.5522847,161 23,161 C22.4477153,161 22,161.447715 22,162 C22,162.552285 22.4477153,163 23,163 Z M23,164 C21.8954305,164 21,163.104569 21,162 C21,160.895431 21.8954305,160 23,160 C24.1045695,160 25,160.895431 25,162 C25,163.104569 24.1045695,164 23,164 Z"/>
</svg>
