<svg xmlns="http://www.w3.org/2000/svg" width="300" height="180" viewBox="0 0 300 180">
  <path fill="#6B47B3" fill-rule="nonzero" d="M264 160C264.552285 160 265 159.552285 265 159 265 158.447715 264.552285 158 264 158 263.447715 158 263 158.447715 263 159 263 159.552285 263.447715 160 264 160zM264 161C262.895431 161 262 160.104569 262 159 262 157.895431 262.895431 157 264 157 265.104569 157 266 157.895431 266 159 266 160.104569 265.104569 161 264 161zM281 72C281.552285 72 282 71.5522847 282 71 282 70.4477153 281.552285 70 281 70 280.447715 70 280 70.4477153 280 71 280 71.5522847 280.447715 72 281 72zM281 73C279.895431 73 279 72.1045695 279 71 279 69.8954305 279.895431 69 281 69 282.104569 69 283 69.8954305 283 71 283 72.1045695 282.104569 73 281 73z"/>
  <polygon fill="#6B47B3" points="275 149 275 147 276 147 276 149 278 149 278 150 276 150 276 152 275 152 275 150 273 150 273 149"/>
  <path fill="#9966FF" fill-rule="nonzero" d="M20,35 C20.5522847,35 21,34.5522847 21,34 C21,33.4477153 20.5522847,33 20,33 C19.4477153,33 19,33.4477153 19,34 C19,34.5522847 19.4477153,35 20,35 Z M20,36 C18.8954305,36 18,35.1045695 18,34 C18,32.8954305 18.8954305,32 20,32 C21.1045695,32 22,32.8954305 22,34 C22,35.1045695 21.1045695,36 20,36 Z"/>
  <path fill="#9966FF" fill-rule="nonzero" d="M34.8062676 19.1937324C35.0645775 19.4520422 35.0645775 19.8708451 34.8062676 20.1291549L33.4031338 21.5322887C33.144824 21.7905985 32.7260211 21.7905985 32.4677113 21.5322887 32.2094015 21.2739789 32.2094015 20.855176 32.4677113 20.5968662L33.8708451 19.1937324C34.1291549 18.9354225 34.5479578 18.9354225 34.8062676 19.1937324L34.8062676 19.1937324zM31.5322887 22.4677113C31.7905985 22.7260211 31.7905985 23.144824 31.5322887 23.4031338L30.1291549 24.8062676C29.8708451 25.0645775 29.4520422 25.0645775 29.1937324 24.8062676 28.9354225 24.5479578 28.9354225 24.1291549 29.1937324 23.8708451L30.5968662 22.4677113C30.855176 22.2094015 31.2739789 22.2094015 31.5322887 22.4677113zM34.8062676 24.8062676C34.5479578 25.0645775 34.1291549 25.0645775 33.8708451 24.8062676L32.4677113 23.4031338C32.2094015 23.144824 32.2094015 22.7260211 32.4677113 22.4677113 32.7260211 22.2094015 33.144824 22.2094015 33.4031338 22.4677113L34.8062676 23.8708451C35.0645775 24.1291549 35.0645775 24.5479578 34.8062676 24.8062676zM31.5322887 21.5322887C31.2739789 21.7905985 30.855176 21.7905985 30.5968662 21.5322887L29.1937324 20.1291549C28.9354225 19.8708451 28.9354225 19.4520422 29.1937324 19.1937324 29.4520422 18.9354225 29.8708451 18.9354225 30.1291549 19.1937324L31.5322887 20.5968662C31.7905985 20.855176 31.7905985 21.2739789 31.5322887 21.5322887zM20.8062676 88.1937324C21.0645775 88.4520422 21.0645775 88.8708451 20.8062676 89.1291549L19.4031338 90.5322887C19.144824 90.7905985 18.7260211 90.7905985 18.4677113 90.5322887 18.2094015 90.2739789 18.2094015 89.855176 18.4677113 89.5968662L19.8708451 88.1937324C20.1291549 87.9354225 20.5479578 87.9354225 20.8062676 88.1937324L20.8062676 88.1937324zM17.5322887 91.4677113C17.7905985 91.7260211 17.7905985 92.144824 17.5322887 92.4031338L16.1291549 93.8062676C15.8708451 94.0645775 15.4520422 94.0645775 15.1937324 93.8062676 14.9354225 93.5479578 14.9354225 93.1291549 15.1937324 92.8708451L16.5968662 91.4677113C16.855176 91.2094015 17.2739789 91.2094015 17.5322887 91.4677113zM20.8062676 93.8062676C20.5479578 94.0645775 20.1291549 94.0645775 19.8708451 93.8062676L18.4677113 92.4031338C18.2094015 92.144824 18.2094015 91.7260211 18.4677113 91.4677113 18.7260211 91.2094015 19.144824 91.2094015 19.4031338 91.4677113L20.8062676 92.8708451C21.0645775 93.1291549 21.0645775 93.5479578 20.8062676 93.8062676zM17.5322887 90.5322887C17.2739789 90.7905985 16.855176 90.7905985 16.5968662 90.5322887L15.1937324 89.1291549C14.9354225 88.8708451 14.9354225 88.4520422 15.1937324 88.1937324 15.4520422 87.9354225 15.8708451 87.9354225 16.1291549 88.1937324L17.5322887 89.5968662C17.7905985 89.855176 17.7905985 90.2739789 17.5322887 90.5322887z"/>
  <path fill="#9966FF" d="M50,36 L111.000083,36 L135.000083,60 L135.000083,145.000073 C135.000083,146.104643 134.104652,147.000073 133.000083,147.000073 L50,147.000073 C48.8954305,147.000073 48,146.104643 48,145.000073 L48,38 C48,36.8954305 48.8954305,36 50,36 Z"/>
  <path fill="#FFFFFF" d="M111.000083,36 L135.000083,60 L112.000083,60 C111.447798,60 111.000083,59.5522847 111.000083,59 L111.000083,36 Z" opacity=".3"/>
  <polygon fill="#FFFFFF" fill-rule="nonzero" points="81.493 91.167 106 91.167 106 92.833 81.493 92.833 90.25 100.8 88.954 102 78 92 88.954 82 90.25 83.2"/>
  <path fill="#6B47B3" d="M166.999917,36 L228,36 L252,60 L252,145.000073 C252,146.104643 251.104569,147.000073 250,147.000073 L166.999917,147.000073 C165.895348,147.000073 164.999917,146.104643 164.999917,145.000073 L164.999917,38 C164.999917,36.8954305 165.895348,36 166.999917,36 Z"/>
  <polygon fill="#FFFFFF" fill-rule="nonzero" points="218.507 91.167 209.75 83.2 211.046 82 222 92 211.046 102 209.75 100.8 218.507 92.833 194 92.833 194 91.167"/>
  <path fill="#FFFFFF" fill-rule="nonzero" d="M62.64,126.56 L61.95,128.96 L66.96,128.96 L66.27,126.56 C65.64,124.49 65.07,122.24 64.5,120.08 L64.38,120.08 C63.84,122.27 63.27,124.49 62.64,126.56 Z M56.07,137 L62.46,117.38 L66.54,117.38 L72.93,137 L69.27,137 L67.74,131.69 L61.14,131.69 L59.61,137 L56.07,137 Z"/>
  <path fill="#FFFFFF" fill-rule="nonzero" d="M228.535,137 L228.535,117.38 L234.805,117.38 C238.855,117.38 241.825,118.61 241.825,122.21 C241.825,124.07 240.805,125.87 239.095,126.47 L239.095,126.59 C241.255,127.07 242.845,128.6 242.845,131.24 C242.845,135.17 239.635,137 235.315,137 L228.535,137 Z M232.015,125.48 L234.505,125.48 C237.235,125.48 238.405,124.4 238.405,122.72 C238.405,120.8 237.115,120.08 234.565,120.08 L232.015,120.08 L232.015,125.48 Z M232.015,134.3 L234.955,134.3 C237.835,134.3 239.455,133.25 239.455,131.06 C239.455,128.99 237.895,128.09 234.955,128.09 L232.015,128.09 L232.015,134.3 Z"/>
  <path fill="#FFFFFF" d="M228,36 L252,60 L229,60 C228.447715,60 228,59.5522847 228,59 L228,36 Z" opacity=".3"/>
  <rect width="1" height="4" x="149" y="36" fill="#262626"/>
  <rect width="1" height="4" x="149" y="48" fill="#262626"/>
  <rect width="1" height="4" x="149" y="60" fill="#262626"/>
  <rect width="1" height="4" x="149" y="72" fill="#262626"/>
  <rect width="1" height="4" x="149" y="96" fill="#262626"/>
  <rect width="1" height="4" x="149" y="108" fill="#262626"/>
  <rect width="1" height="4" x="149" y="42" fill="#262626"/>
  <rect width="1" height="4" x="149" y="54" fill="#262626"/>
  <rect width="1" height="4" x="149" y="66" fill="#262626"/>
  <rect width="1" height="4" x="149" y="90" fill="#262626"/>
  <rect width="1" height="4" x="149" y="84" fill="#262626"/>
  <rect width="1" height="4" x="149" y="78" fill="#262626"/>
  <rect width="1" height="4" x="149" y="102" fill="#262626"/>
  <rect width="1" height="4" x="149" y="114" fill="#262626"/>
  <rect width="1" height="4" x="149" y="120" fill="#262626"/>
  <rect width="1" height="4" x="149" y="126" fill="#262626"/>
  <rect width="1" height="4" x="149" y="132" fill="#262626"/>
  <path fill="#9966FF" d="M148.462063,148.943225 L143.285714,135 L144.47438,135.598434 C145.35137,136.039954 146.026336,136.79059 146.363849,137.699729 L149.5,146.147394 L152.636151,137.699729 C152.973664,136.79059 153.64863,136.039954 154.52562,135.598434 L155.714286,135 L150.537937,148.943225 L152.983828,155.531576 C153.639125,154.328901 154.730763,153.350246 156.139188,152.847659 C159.17627,151.763899 162.536308,153.304218 163.644043,156.288059 C164.751778,159.2719 163.187734,162.569343 160.150652,163.653104 C157.11357,164.736865 153.753532,163.196546 152.645797,160.212704 L149.5,151.739056 L146.354203,160.212704 C145.246468,163.196546 141.88643,164.736865 138.849348,163.653104 C135.812266,162.569343 134.248222,159.2719 135.355957,156.288059 C136.463692,153.304218 139.82373,151.763899 142.860812,152.847659 C144.269237,153.350246 145.360875,154.328901 146.016172,155.531576 L148.462063,148.943225 Z M139.517925,161.852197 C141.542646,162.574704 143.782672,161.547824 144.521162,159.558597 C145.259652,157.569369 144.216956,155.371074 142.192235,154.648567 C140.167514,153.92606 137.927488,154.952939 137.188998,156.942167 C136.450508,158.931394 137.493204,161.12969 139.517925,161.852197 Z M159.482075,161.852197 C161.506796,161.12969 162.549492,158.931394 161.811002,156.942167 C161.072512,154.952939 158.832486,153.92606 156.807765,154.648567 C154.783044,155.371074 153.740348,157.569369 154.478838,159.558597 C155.217328,161.547824 157.457354,162.574704 159.482075,161.852197 Z"/>
</svg>
