<svg width="335" height="253" viewBox="0 0 335 253" fill="none" xmlns="http://www.w3.org/2000/svg">
<g style="mix-blend-mode:lighten">
<rect width="335" height="253" fill="white"/>
</g>
<g style="mix-blend-mode:darken" filter="url(#filter0_d)">
<rect x="67" y="46" width="135" height="192" rx="15" fill="#FFABAB" shape-rendering="crispEdges"/>
<rect x="67" y="46" width="135" height="192" rx="15" stroke="black" stroke-opacity="0.2" shape-rendering="crispEdges"/>
</g>
<g filter="url(#filter1_d)">
<rect x="157" y="19" width="135" height="192" rx="15" fill="#A5FF86" shape-rendering="crispEdges"/>
<rect x="157" y="19" width="135" height="192" rx="15" stroke="#1A8100" stroke-opacity="0.2" shape-rendering="crispEdges"/>
</g>
<path d="M29.498 86.4756V99H22.1738V63.4531H36.041C38.7103 63.4531 41.054 63.9414 43.0723 64.918C45.1068 65.8945 46.6693 67.2861 47.7598 69.0928C48.8503 70.8831 49.3955 72.9258 49.3955 75.2207C49.3955 78.7038 48.1992 81.4544 45.8066 83.4727C43.4303 85.4746 40.1344 86.4756 35.9189 86.4756H29.498ZM29.498 80.543H36.041C37.9779 80.543 39.4508 80.0872 40.46 79.1758C41.4854 78.2643 41.998 76.9622 41.998 75.2695C41.998 73.528 41.4854 72.1201 40.46 71.0459C39.4346 69.9717 38.0186 69.4183 36.2119 69.3857H29.498V80.543ZM54.4492 99V63.4531H65.3867C68.5117 63.4531 71.3031 64.1611 73.7607 65.5771C76.2347 66.9769 78.1634 68.9788 79.5469 71.583C80.9303 74.1709 81.6221 77.1169 81.6221 80.4209V82.0566C81.6221 85.3607 80.9385 88.2985 79.5713 90.8701C78.2204 93.4417 76.3079 95.4355 73.834 96.8516C71.36 98.2676 68.5687 98.9837 65.46 99H54.4492ZM61.7734 69.3857V93.1162H65.3135C68.1781 93.1162 70.3672 92.1803 71.8809 90.3086C73.3945 88.4368 74.1676 85.7594 74.2002 82.2764V80.3965C74.2002 76.7832 73.4515 74.0488 71.9541 72.1934C70.4567 70.3216 68.2676 69.3857 65.3867 69.3857H61.7734ZM108.355 84.4736H94.293V99H86.9688V63.4531H110.113V69.3857H94.293V78.5654H108.355V84.4736Z" fill="#9B0000"/>
<path d="M222.561 173.595H208.498V183.116H225.002V189H201.174V153.453H224.953V159.386H208.498V167.857H222.561V173.595ZM238.894 170.47L243.337 162.584H250.881L243.361 175.523L251.198 189H243.63L238.918 180.699L234.23 189H226.638L234.475 175.523L226.979 162.584H234.548L238.894 170.47ZM264.772 183.8C266.075 183.8 267.132 183.442 267.946 182.726C268.76 182.009 269.183 181.057 269.216 179.869H275.832C275.816 181.66 275.327 183.303 274.367 184.801C273.407 186.282 272.089 187.438 270.412 188.268C268.752 189.081 266.913 189.488 264.895 189.488C261.118 189.488 258.14 188.292 255.959 185.899C253.778 183.491 252.688 180.17 252.688 175.938V175.475C252.688 171.406 253.77 168.159 255.935 165.733C258.099 163.308 261.07 162.096 264.846 162.096C268.15 162.096 270.795 163.04 272.78 164.928C274.782 166.799 275.799 169.298 275.832 172.423H269.216C269.183 171.056 268.76 169.949 267.946 169.103C267.132 168.24 266.058 167.809 264.724 167.809C263.08 167.809 261.835 168.411 260.988 169.615C260.158 170.803 259.743 172.74 259.743 175.426V176.158C259.743 178.876 260.158 180.829 260.988 182.018C261.818 183.206 263.08 183.8 264.772 183.8ZM292.019 189.488C288.145 189.488 284.987 188.3 282.546 185.924C280.121 183.548 278.908 180.382 278.908 176.427V175.743C278.908 173.09 279.421 170.722 280.446 168.639C281.472 166.539 282.92 164.928 284.792 163.805C286.68 162.665 288.828 162.096 291.237 162.096C294.851 162.096 297.691 163.235 299.758 165.514C301.841 167.792 302.883 171.023 302.883 175.206V178.087H286.062C286.289 179.812 286.973 181.196 288.112 182.237C289.268 183.279 290.725 183.8 292.482 183.8C295.201 183.8 297.325 182.815 298.854 180.846L302.321 184.728C301.263 186.225 299.831 187.397 298.024 188.243C296.218 189.073 294.216 189.488 292.019 189.488ZM291.213 167.809C289.813 167.809 288.674 168.281 287.795 169.225C286.932 170.169 286.379 171.52 286.135 173.277H295.949V172.716C295.917 171.153 295.493 169.949 294.68 169.103C293.866 168.24 292.71 167.809 291.213 167.809ZM314.357 189H307.277V151.5H314.357V189Z" fill="#1A8100"/>
<path fill-rule="evenodd" clip-rule="evenodd" d="M226.451 42H178V62H226.451V42ZM227.451 42V62H275.901V42H276.901V107H275.901H227.451H226.451H178H177V106V83V82V63V62V42V41H275.901V42H227.451ZM227.451 106H275.901V83H227.451V106ZM226.451 83V106H178V83H226.451ZM227.451 82H275.901V63H227.451V82ZM226.451 63V82H178V63H226.451Z" fill="#1A8100"/>
<path d="M178 42V40.5H176.5V42H178ZM226.451 42H227.951V40.5H226.451V42ZM178 62H176.5V63.5H178V62ZM226.451 62V63.5H227.951V62H226.451ZM227.451 42V40.5H225.951V42H227.451ZM227.451 62H225.951V63.5H227.451V62ZM275.901 62V63.5H277.401V62H275.901ZM276.901 42H278.401V40.5H276.901V42ZM276.901 107V108.5H278.401V107H276.901ZM177 107H175.5V108.5H177V107ZM177 41V39.5H175.5V41H177ZM275.901 41H277.401V39.5H275.901V41ZM227.451 106H225.951V107.5H227.451V106ZM275.901 106V107.5H277.401V106H275.901ZM275.901 83H277.401V81.5H275.901V83ZM227.451 83V81.5H225.951V83H227.451ZM226.451 106V107.5H227.951V106H226.451ZM226.451 83H227.951V81.5H226.451V83ZM178 106H176.5V107.5H178V106ZM178 83V81.5H176.5V83H178ZM227.451 82H225.951V83.5H227.451V82ZM275.901 82V83.5H277.401V82H275.901ZM275.901 63H277.401V61.5H275.901V63ZM227.451 63V61.5H225.951V63H227.451ZM226.451 82V83.5H227.951V82H226.451ZM226.451 63H227.951V61.5H226.451V63ZM178 82H176.5V83.5H178V82ZM178 63V61.5H176.5V63H178ZM178 43.5H226.451V40.5H178V43.5ZM179.5 62V42H176.5V62H179.5ZM226.451 60.5H178V63.5H226.451V60.5ZM227.951 62V42H224.951V62H227.951ZM225.951 42V62H228.951V42H225.951ZM275.901 60.5H227.451V63.5H275.901V60.5ZM274.401 42V62H277.401V42H274.401ZM276.901 40.5H275.901V43.5H276.901V40.5ZM278.401 107V42H275.401V107H278.401ZM275.901 108.5H276.901V105.5H275.901V108.5ZM227.451 108.5H275.901V105.5H227.451V108.5ZM227.451 105.5H226.451V108.5H227.451V105.5ZM178 108.5H226.451V105.5H178V108.5ZM177 108.5H178V105.5H177V108.5ZM175.5 106V107H178.5V106H175.5ZM175.5 83V106H178.5V83H175.5ZM175.5 82V83H178.5V82H175.5ZM175.5 63V82H178.5V63H175.5ZM175.5 62V63H178.5V62H175.5ZM175.5 42V62H178.5V42H175.5ZM175.5 41V42H178.5V41H175.5ZM275.901 39.5H177V42.5H275.901V39.5ZM277.401 42V41H274.401V42H277.401ZM227.451 43.5H275.901V40.5H227.451V43.5ZM227.451 107.5H275.901V104.5H227.451V107.5ZM277.401 106V83H274.401V106H277.401ZM275.901 81.5H227.451V84.5H275.901V81.5ZM225.951 83V106H228.951V83H225.951ZM227.951 106V83H224.951V106H227.951ZM178 107.5H226.451V104.5H178V107.5ZM176.5 83V106H179.5V83H176.5ZM226.451 81.5H178V84.5H226.451V81.5ZM227.451 83.5H275.901V80.5H227.451V83.5ZM277.401 82V63H274.401V82H277.401ZM275.901 61.5H227.451V64.5H275.901V61.5ZM225.951 63V82H228.951V63H225.951ZM227.951 82V63H224.951V82H227.951ZM178 83.5H226.451V80.5H178V83.5ZM176.5 63V82H179.5V63H176.5ZM226.451 61.5H178V64.5H226.451V61.5Z" fill="#1A8100"/>
<defs>
<filter id="filter0_d" x="62.5" y="45.5" width="144" height="201" filterUnits="userSpaceOnUse" color-interpolation-filters="sRGB">
<feFlood flood-opacity="0" result="BackgroundImageFix"/>
<feColorMatrix in="SourceAlpha" type="matrix" values="0 0 0 0 0 0 0 0 0 0 0 0 0 0 0 0 0 0 127 0" result="hardAlpha"/>
<feOffset dy="4"/>
<feGaussianBlur stdDeviation="2"/>
<feComposite in2="hardAlpha" operator="out"/>
<feColorMatrix type="matrix" values="0 0 0 0 0 0 0 0 0 0 0 0 0 0 0 0 0 0 0.25 0"/>
<feBlend mode="normal" in2="BackgroundImageFix" result="effect1_dropShadow"/>
<feBlend mode="normal" in="SourceGraphic" in2="effect1_dropShadow" result="shape"/>
</filter>
<filter id="filter1_d" x="152.5" y="18.5" width="144" height="201" filterUnits="userSpaceOnUse" color-interpolation-filters="sRGB">
<feFlood flood-opacity="0" result="BackgroundImageFix"/>
<feColorMatrix in="SourceAlpha" type="matrix" values="0 0 0 0 0 0 0 0 0 0 0 0 0 0 0 0 0 0 127 0" result="hardAlpha"/>
<feOffset dy="4"/>
<feGaussianBlur stdDeviation="2"/>
<feComposite in2="hardAlpha" operator="out"/>
<feColorMatrix type="matrix" values="0 0 0 0 0 0 0 0 0 0 0 0 0 0 0 0 0 0 0.25 0"/>
<feBlend mode="normal" in2="BackgroundImageFix" result="effect1_dropShadow"/>
<feBlend mode="normal" in="SourceGraphic" in2="effect1_dropShadow" result="shape"/>
</filter>
</defs>
</svg>
